<svg width="22" height="22" viewBox="0 0 22 22" fill="none" xmlns="http://www.w3.org/2000/svg">
<path d="M9.37994 12.0802C9.25972 12.0289 9.13062 12.0018 8.99994 12.0002H4.99994C4.73472 12.0002 4.48037 12.1055 4.29283 12.2931C4.1053 12.4806 3.99994 12.735 3.99994 13.0002C3.99994 13.2654 4.1053 13.5198 4.29283 13.7073C4.48037 13.8948 4.73472 14.0002 4.99994 14.0002H6.58994L1.28994 19.2902C1.19621 19.3831 1.12182 19.4937 1.07105 19.6156C1.02028 19.7375 0.994141 19.8682 0.994141 20.0002C0.994141 20.1322 1.02028 20.2629 1.07105 20.3848C1.12182 20.5066 1.19621 20.6172 1.28994 20.7102C1.3829 20.8039 1.4935 20.8783 1.61536 20.9291C1.73722 20.9798 1.86793 21.006 1.99994 21.006C2.13195 21.006 2.26266 20.9798 2.38452 20.9291C2.50637 20.8783 2.61698 20.8039 2.70994 20.7102L7.99994 15.4102V17.0002C7.99994 17.2654 8.1053 17.5198 8.29283 17.7073C8.48037 17.8948 8.73472 18.0002 8.99994 18.0002C9.26516 18.0002 9.51951 17.8948 9.70705 17.7073C9.89458 17.5198 9.99994 17.2654 9.99994 17.0002V13.0002C9.99836 12.8695 9.97118 12.7404 9.91994 12.6202C9.81846 12.3758 9.62429 12.1817 9.37994 12.0802ZM8.99994 4.00019C8.73472 4.00019 8.48037 4.10554 8.29283 4.29308C8.1053 4.48062 7.99994 4.73497 7.99994 5.00019V6.59019L2.70994 1.29019C2.6167 1.19695 2.50601 1.12299 2.38419 1.07253C2.26237 1.02207 2.1318 0.996094 1.99994 0.996094C1.86808 0.996094 1.73751 1.02207 1.61569 1.07253C1.49387 1.12299 1.38318 1.19695 1.28994 1.29019C1.10164 1.47849 0.995847 1.73388 0.995847 2.00019C0.995847 2.26649 1.10164 2.52188 1.28994 2.71019L6.58994 8.00019H4.99994C4.73472 8.00019 4.48037 8.10554 4.29283 8.29308C4.1053 8.48062 3.99994 8.73497 3.99994 9.00019C3.99994 9.2654 4.1053 9.51976 4.29283 9.70729C4.48037 9.89483 4.73472 10.0002 4.99994 10.0002H8.99994C9.13062 9.99861 9.25972 9.97143 9.37994 9.92019C9.62429 9.81871 9.81846 9.62453 9.91994 9.38019C9.97118 9.25996 9.99836 9.13086 9.99994 9.00019V5.00019C9.99994 4.73497 9.89458 4.48062 9.70705 4.29308C9.51951 4.10554 9.26516 4.00019 8.99994 4.00019ZM12.6199 9.92019C12.7402 9.97143 12.8693 9.99861 12.9999 10.0002H16.9999C17.2652 10.0002 17.5195 9.89483 17.707 9.70729C17.8946 9.51976 17.9999 9.2654 17.9999 9.00019C17.9999 8.73497 17.8946 8.48062 17.707 8.29308C17.5195 8.10554 17.2652 8.00019 16.9999 8.00019H15.4099L20.7099 2.71019C20.8982 2.52188 21.004 2.26649 21.004 2.00019C21.004 1.73388 20.8982 1.47849 20.7099 1.29019C20.5216 1.10188 20.2662 0.996094 19.9999 0.996094C19.7336 0.996094 19.4782 1.10188 19.2899 1.29019L13.9999 6.59019V5.00019C13.9999 4.73497 13.8946 4.48062 13.707 4.29308C13.5195 4.10554 13.2652 4.00019 12.9999 4.00019C12.7347 4.00019 12.4804 4.10554 12.2928 4.29308C12.1053 4.48062 11.9999 4.73497 11.9999 5.00019V9.00019C12.0015 9.13086 12.0287 9.25996 12.0799 9.38019C12.1814 9.62453 12.3756 9.81871 12.6199 9.92019V9.92019ZM15.4099 14.0002H16.9999C17.2652 14.0002 17.5195 13.8948 17.707 13.7073C17.8946 13.5198 17.9999 13.2654 17.9999 13.0002C17.9999 12.735 17.8946 12.4806 17.707 12.2931C17.5195 12.1055 17.2652 12.0002 16.9999 12.0002H12.9999C12.8693 12.0018 12.7402 12.0289 12.6199 12.0802C12.3756 12.1817 12.1814 12.3758 12.0799 12.6202C12.0287 12.7404 12.0015 12.8695 11.9999 13.0002V17.0002C11.9999 17.2654 12.1053 17.5198 12.2928 17.7073C12.4804 17.8948 12.7347 18.0002 12.9999 18.0002C13.2652 18.0002 13.5195 17.8948 13.707 17.7073C13.8946 17.5198 13.9999 17.2654 13.9999 17.0002V15.4102L19.2899 20.7102C19.3829 20.8039 19.4935 20.8783 19.6154 20.9291C19.7372 20.9798 19.8679 21.006 19.9999 21.006C20.132 21.006 20.2627 20.9798 20.3845 20.9291C20.5064 20.8783 20.617 20.8039 20.7099 20.7102C20.8037 20.6172 20.8781 20.5066 20.9288 20.3848C20.9796 20.2629 21.0057 20.1322 21.0057 20.0002C21.0057 19.8682 20.9796 19.7375 20.9288 19.6156C20.8781 19.4937 20.8037 19.3831 20.7099 19.2902L15.4099 14.0002Z" fill="black"/>
</svg>
