<svg width="153" height="156" viewBox="0 0 153 156" fill="none" xmlns="http://www.w3.org/2000/svg">
<rect x="52.1809" y="10.5477" width="25.465" height="103.358" rx="12.7325" transform="rotate(30 52.1809 10.5477)" fill="#FF546D"/>
<rect x="127.28" y="46.3712" width="26.544" height="109.837" rx="13.272" transform="rotate(30 127.28 46.3712)" fill="#00D4E6"/>
<path d="M19.9076 108.227C14.4954 106.849 8.11133 105.737 5.92269 100.599C4.34328 96.8907 4.46565 92.5112 6.63599 88.752C9.00375 84.6509 13.2297 82.2916 17.6364 82.1234C22.5207 81.9371 27.3347 83.9935 32.0853 85.144C38.7429 86.7563 49.7407 90.4352 64.2444 98.8088C78.748 107.183 87.4329 114.867 92.158 119.827C95.5296 123.366 99.7176 126.507 101.998 130.83C104.056 134.73 104.126 139.57 101.758 143.671C99.5877 147.43 95.856 149.726 91.8551 150.212C86.3109 150.886 82.1561 145.913 78.2564 141.915C73.5656 137.106 65.2077 130.015 50.9723 121.797C36.7369 113.578 26.4178 109.885 19.9076 108.227Z" fill="#6D86F5"/>
<path d="M74.7438 13.2501C70.8441 9.25199 66.6893 4.27915 61.1451 4.95287C57.1441 5.43906 53.4125 7.73481 51.2422 11.494C48.8744 15.595 48.9441 20.4345 51.0019 24.3349C53.2826 28.6579 57.4706 31.7989 60.8422 35.3377C65.5673 40.2972 74.2522 47.9822 88.7558 56.3558C103.259 64.7295 114.257 68.4084 120.915 70.0207C125.665 71.1712 130.48 73.2276 135.364 73.0412C139.77 72.8731 143.996 70.5138 146.364 66.4127C148.535 62.6535 148.657 58.274 147.077 54.566C144.889 49.4277 138.505 48.3159 133.093 46.9377C126.582 45.28 116.263 41.5868 102.028 33.368C87.7924 25.1492 79.4346 18.0592 74.7438 13.2501Z" fill="#FFAA50"/>
<rect x="56.6743" y="2.7644" width="25.465" height="58.4198" rx="12.7325" transform="rotate(30 56.6743 2.7644)" fill="#FF546D"/>
<rect x="104.647" y="85.5725" width="26.544" height="64.572" rx="13.272" transform="rotate(30 104.647 85.5725)" fill="#00D4E6"/>
</svg>
