<svg width="24" height="24" viewBox="0 0 24 24" fill="none" xmlns="http://www.w3.org/2000/svg">
<path d="M11.2898 11.4598C11.3827 11.5535 11.4933 11.6279 11.6152 11.6786C11.7371 11.7294 11.8678 11.7556 11.9998 11.7556C12.1318 11.7556 12.2625 11.7294 12.3844 11.6786C12.5062 11.6279 12.6168 11.5535 12.7098 11.4598L15.7098 8.45976C15.8056 8.36652 15.8822 8.25531 15.9351 8.13248C15.988 8.00966 16.0162 7.87762 16.018 7.7439C16.0199 7.61018 15.9954 7.47741 15.9459 7.35316C15.8965 7.22891 15.823 7.11562 15.7298 7.01976C15.6365 6.92389 15.5253 6.84733 15.4025 6.79444C15.2797 6.74156 15.1476 6.71338 15.0139 6.71152C14.8802 6.70967 14.7474 6.73417 14.6232 6.78362C14.4989 6.83308 14.3856 6.90652 14.2898 6.99976L11.9998 9.33976L9.70978 6.99976C9.51617 6.81145 9.25569 6.70777 8.98564 6.71152C8.71558 6.71527 8.45808 6.82615 8.26978 7.01976C8.08147 7.21337 7.97779 7.47385 7.98154 7.7439C7.98529 8.01395 8.09617 8.27145 8.28978 8.45976L11.2898 11.4598ZM14.2898 12.5398L11.9998 14.8398L9.70978 12.5398C9.51617 12.3515 9.25569 12.2478 8.98564 12.2515C8.71558 12.2553 8.45808 12.3662 8.26978 12.5598C8.08147 12.7534 7.97779 13.0138 7.98154 13.2839C7.98529 13.554 8.09617 13.8115 8.28978 13.9998L11.2898 16.9998C11.3827 17.0935 11.4933 17.1679 11.6152 17.2186C11.7371 17.2694 11.8678 17.2956 11.9998 17.2956C12.1318 17.2956 12.2625 17.2694 12.3844 17.2186C12.5062 17.1679 12.6168 17.0935 12.7098 16.9998L15.7098 13.9998C15.8981 13.8115 16.0039 13.5561 16.0039 13.2898C16.0039 13.0235 15.8981 12.7681 15.7098 12.5798C15.5215 12.3915 15.2661 12.2857 14.9998 12.2857C14.7335 12.2857 14.4781 12.3915 14.2898 12.5798V12.5398Z" fill="black"/>
</svg>
